<svg width="21" height="21" viewBox="0 0 21 21" fill="none" xmlns="http://www.w3.org/2000/svg">
    <path d="M20.5846 18.2255L20.3569 18.0246C19.711 17.4491 19.1455 16.7891 18.676 16.0624C18.1631 15.0595 17.8558 13.9644 17.7719 12.8411V9.53277C17.7692 9.13091 17.7333 8.72997 17.6647 8.334C16.5303 8.10083 15.5113 7.48282 14.7803 6.58458C14.0493 5.68635 13.6511 4.56309 13.6532 3.40497V2.98306C12.954 2.63896 12.2027 2.41268 11.4298 2.31335V1.46953C11.4298 1.23241 11.3356 1.005 11.1679 0.837333C11.0002 0.669665 10.7728 0.57547 10.5357 0.57547C10.2986 0.57547 10.0712 0.669665 9.90353 0.837333C9.73586 1.005 9.64166 1.23241 9.64166 1.46953V2.34684C7.91096 2.59098 6.32701 3.45302 5.18225 4.7738C4.03749 6.09459 3.40921 7.78493 3.41341 9.53277V12.8411C3.32954 13.9644 3.02216 15.0595 2.50931 16.0624C2.04781 16.7872 1.49149 17.4472 0.855141 18.0246L0.627441 18.2255V20.1141H20.5846V18.2255Z" fill="white"/>
</svg>
