<svg width="24" height="25" viewBox="0 0 24 25" fill="none" xmlns="http://www.w3.org/2000/svg">
    <path d="M6 19.073C8.206 19.073 10 17.279 10 15.073V4.928L19 8.2V15.63C18.3949 15.2695 17.7044 15.0772 17 15.073C14.794 15.073 13 16.867 13 19.073C13 21.279 14.794 23.073 17 23.073C19.206 23.073 21 21.279 21 19.073V7.5C21.0001 7.29483 20.937 7.0946 20.8193 6.92658C20.7016 6.75855 20.5349 6.6309 20.342 6.561L9.342 2.561C9.19099 2.5058 9.02889 2.48786 8.86947 2.50871C8.71005 2.52955 8.55801 2.58857 8.42627 2.68075C8.29454 2.77292 8.187 2.89553 8.11279 3.03816C8.03857 3.18079 7.99988 3.33922 8 3.5V11.63C7.39487 11.2695 6.70439 11.0772 6 11.073C3.794 11.073 2 12.867 2 15.073C2 17.279 3.794 19.073 6 19.073Z" fill="#00B69C"/>
</svg>
